<svg xmlns="http://www.w3.org/2000/svg" viewBox="0 0 600 750" role="img" aria-label="Person stellt einen Gegenstand auf ein Regal, Smartphone in der Hand">
  <defs>
    <linearGradient id="bg2" x1="0" y1="0" x2="0" y2="1">
      <stop offset="0%" stop-color="#FAFAFA"/>
      <stop offset="100%" stop-color="#EDEDED"/>
    </linearGradient>
  </defs>
  <rect width="600" height="750" fill="url(#bg2)"/>

  <g stroke="#D4D4D4" stroke-width="4">
    <line x1="40" y1="240" x2="560" y2="240"/>
    <line x1="40" y1="420" x2="560" y2="420"/>
    <line x1="40" y1="600" x2="560" y2="600"/>
  </g>

  <g transform="translate(60,200)">
    <rect x="10" y="0" width="60" height="40" rx="3" fill="#0A0A0A"/>
    <rect x="100" y="10" width="40" height="30" rx="2" fill="#00D66C"/>
    <circle cx="200" cy="25" r="18" fill="#D5C8B1" stroke="#B8A88B" stroke-width="2"/>
    <rect x="250" y="5" width="70" height="35" rx="4" fill="#1A1A1A"/>
    <rect x="350" y="0" width="50" height="40" rx="2" fill="#9CA3AF"/>
  </g>
  <g transform="translate(60,380)">
    <rect x="30" y="0" width="90" height="40" rx="3" fill="#E5E5E5" stroke="#9CA3AF" stroke-width="1"/>
    <circle cx="220" cy="20" r="20" fill="#0A0A0A"/>
    <rect x="300" y="5" width="60" height="35" rx="4" fill="#00C25F"/>
  </g>
  <g transform="translate(60,560)">
    <rect x="20" y="0" width="100" height="40" rx="3" fill="#1A1A1A"/>
    <rect x="160" y="10" width="80" height="30" rx="3" fill="#D5C8B1"/>
  </g>

  <g transform="translate(260,240)">
    <circle cx="80" cy="70" r="50" fill="#E8C9A8" stroke="#B8866A" stroke-width="2"/>
    <path d="M 30 50 C 35 20, 80 5, 120 15 C 155 25, 160 60, 150 80 L 145 80 L 130 70 L 90 65 L 55 75 Z" fill="#3A2A1E"/>
    <path d="M 60 72 Q 68 68, 74 73" stroke="#3A2A1E" stroke-width="3" fill="none" stroke-linecap="round"/>
    <path d="M 90 72 Q 98 68, 104 73" stroke="#3A2A1E" stroke-width="3" fill="none" stroke-linecap="round"/>
    <path d="M 70 100 Q 82 112, 95 100" stroke="#3A2A1E" stroke-width="2.5" fill="none" stroke-linecap="round"/>
    <path d="M 30 130 L 140 130 L 160 280 L 10 280 Z" fill="#0A0A0A"/>
    <path d="M 40 155 L 130 155" stroke="#00D66C" stroke-width="4" stroke-linecap="round"/>
    <path d="M 10 280 L 0 410 L 55 410 L 65 300" fill="#1A1A1A"/>
    <path d="M 160 280 L 175 410 L 120 410 L 110 300" fill="#1A1A1A"/>

    <path d="M 138 150 L 200 90" stroke="#E8C9A8" stroke-width="22" fill="none" stroke-linecap="round"/>
    <rect x="180" y="40" width="60" height="90" rx="8" fill="#0A0A0A"/>
    <rect x="186" y="48" width="48" height="70" rx="3" fill="#F5F5F5"/>
    <rect x="192" y="56" width="36" height="6" rx="1" fill="#0A0A0A"/>
    <rect x="192" y="68" width="30" height="6" rx="1" fill="#9CA3AF"/>
    <rect x="192" y="80" width="36" height="4" rx="1" fill="#9CA3AF"/>
    <rect x="192" y="90" width="40" height="20" rx="2" fill="#00D66C"/>
    <circle cx="210" cy="124" r="3" fill="#0A0A0A"/>

    <path d="M 22 160 L -50 120" stroke="#E8C9A8" stroke-width="22" fill="none" stroke-linecap="round"/>
    <rect x="-100" y="100" width="60" height="40" rx="6" fill="#00D66C" stroke="#0A0A0A" stroke-width="2"/>
    <text x="-80" y="126" font-family="ui-monospace, monospace" font-size="12" fill="#0A0A0A" font-weight="700">NEU</text>
  </g>

  <g opacity="0.7">
    <rect x="40" y="40" width="4" height="4" fill="#00D66C"/>
    <text x="58" y="52" font-family="ui-monospace, monospace" font-size="10" fill="#0A0A0A" letter-spacing="2.5">FÜR VERMIETER</text>
  </g>
</svg>
